<mxfile host="app.diagrams.net" agent="Mozilla/5.0 (Windows NT 10.0; Win64; x64) AppleWebKit/537.36 (KHTML, like Gecko) Chrome/135.0.0.0 Safari/537.36 Edg/135.0.0.0" version="26.2.15">
  <diagram name="第 1 页" id="CGc1H9h1zj-3VdinyjCf">
    <mxGraphModel dx="2058" dy="1146" grid="1" gridSize="10" guides="1" tooltips="1" connect="1" arrows="1" fold="1" page="1" pageScale="1" pageWidth="827" pageHeight="1169" math="0" shadow="0">
      <root>
        <mxCell id="0" />
        <mxCell id="1" parent="0" />
        <mxCell id="kdoTQ5srRfIp-IT-ElM3-26" value="交通监控系统优化与实现" style="whiteSpace=wrap;strokeWidth=2;" vertex="1" parent="1">
          <mxGeometry x="845" y="240" width="150" height="54" as="geometry" />
        </mxCell>
        <mxCell id="kdoTQ5srRfIp-IT-ElM3-27" value="模型优化" style="whiteSpace=wrap;strokeWidth=2;" vertex="1" parent="1">
          <mxGeometry x="470" y="400" width="150" height="54" as="geometry" />
        </mxCell>
        <mxCell id="kdoTQ5srRfIp-IT-ElM3-28" value="实时性与高效性" style="whiteSpace=wrap;strokeWidth=2;" vertex="1" parent="1">
          <mxGeometry x="720" y="400" width="150" height="54" as="geometry" />
        </mxCell>
        <mxCell id="kdoTQ5srRfIp-IT-ElM3-29" value="多源数据融合" style="whiteSpace=wrap;strokeWidth=2;" vertex="1" parent="1">
          <mxGeometry x="970" y="400" width="150" height="54" as="geometry" />
        </mxCell>
        <mxCell id="kdoTQ5srRfIp-IT-ElM3-30" value="系统集成与应用" style="whiteSpace=wrap;strokeWidth=2;" vertex="1" parent="1">
          <mxGeometry x="1219" y="400" width="150" height="54" as="geometry" />
        </mxCell>
        <mxCell id="kdoTQ5srRfIp-IT-ElM3-31" value="研究复杂交通场景下模型性能提升方法" style="whiteSpace=wrap;strokeWidth=2;" vertex="1" parent="1">
          <mxGeometry x="440" y="510" width="100" height="50" as="geometry" />
        </mxCell>
        <mxCell id="kdoTQ5srRfIp-IT-ElM3-32" value="优化模型结构提高鲁棒性" style="whiteSpace=wrap;strokeWidth=2;" vertex="1" parent="1">
          <mxGeometry x="550" y="510" width="100" height="50" as="geometry" />
        </mxCell>
        <mxCell id="kdoTQ5srRfIp-IT-ElM3-33" value="采用模型压缩技术" style="whiteSpace=wrap;strokeWidth=2;" vertex="1" parent="1">
          <mxGeometry x="690" y="510" width="100" height="50" as="geometry" />
        </mxCell>
        <mxCell id="kdoTQ5srRfIp-IT-ElM3-34" value="运用算法加速方法" style="whiteSpace=wrap;strokeWidth=2;" vertex="1" parent="1">
          <mxGeometry x="800" y="510" width="100" height="50" as="geometry" />
        </mxCell>
        <mxCell id="kdoTQ5srRfIp-IT-ElM3-35" value="探索多源数据融合方式" style="whiteSpace=wrap;strokeWidth=2;" vertex="1" parent="1">
          <mxGeometry x="940" y="510" width="100" height="50" as="geometry" />
        </mxCell>
        <mxCell id="kdoTQ5srRfIp-IT-ElM3-36" value="实现全面准确的交通信息获取" style="whiteSpace=wrap;strokeWidth=2;" vertex="1" parent="1">
          <mxGeometry x="1050" y="510" width="100" height="50" as="geometry" />
        </mxCell>
        <mxCell id="kdoTQ5srRfIp-IT-ElM3-37" value="构建高效可靠系统架构" style="whiteSpace=wrap;strokeWidth=2;" vertex="1" parent="1">
          <mxGeometry x="1189" y="510" width="100" height="50" as="geometry" />
        </mxCell>
        <mxCell id="kdoTQ5srRfIp-IT-ElM3-38" value="进行实际应用验证" style="whiteSpace=wrap;strokeWidth=2;" vertex="1" parent="1">
          <mxGeometry x="1299" y="510" width="100" height="50" as="geometry" />
        </mxCell>
        <mxCell id="kdoTQ5srRfIp-IT-ElM3-39" value="" style="startArrow=none;endArrow=block;exitX=0.5;exitY=1;entryX=0.5;entryY=0;rounded=0;edgeStyle=orthogonalEdgeStyle;exitDx=0;exitDy=0;" edge="1" parent="1" source="kdoTQ5srRfIp-IT-ElM3-26" target="kdoTQ5srRfIp-IT-ElM3-27">
          <mxGeometry relative="1" as="geometry" />
        </mxCell>
        <mxCell id="kdoTQ5srRfIp-IT-ElM3-40" value="" style="startArrow=none;endArrow=block;exitX=0.5;exitY=1;entryX=0.5;entryY=0;rounded=0;edgeStyle=orthogonalEdgeStyle;exitDx=0;exitDy=0;" edge="1" parent="1" source="kdoTQ5srRfIp-IT-ElM3-26" target="kdoTQ5srRfIp-IT-ElM3-28">
          <mxGeometry relative="1" as="geometry" />
        </mxCell>
        <mxCell id="kdoTQ5srRfIp-IT-ElM3-41" value="" style="startArrow=none;endArrow=block;exitX=0.5;exitY=1;entryX=0.5;entryY=0;rounded=0;edgeStyle=orthogonalEdgeStyle;exitDx=0;exitDy=0;" edge="1" parent="1" source="kdoTQ5srRfIp-IT-ElM3-26" target="kdoTQ5srRfIp-IT-ElM3-29">
          <mxGeometry relative="1" as="geometry" />
        </mxCell>
        <mxCell id="kdoTQ5srRfIp-IT-ElM3-42" value="" style="startArrow=none;endArrow=block;exitX=0.5;exitY=1;entryX=0.5;entryY=0;rounded=0;edgeStyle=orthogonalEdgeStyle;exitDx=0;exitDy=0;" edge="1" parent="1" source="kdoTQ5srRfIp-IT-ElM3-26" target="kdoTQ5srRfIp-IT-ElM3-30">
          <mxGeometry relative="1" as="geometry" />
        </mxCell>
        <mxCell id="kdoTQ5srRfIp-IT-ElM3-43" value="" style="startArrow=none;endArrow=block;exitX=0.5;exitY=1;entryX=0.5;entryY=0;rounded=0;edgeStyle=orthogonalEdgeStyle;exitDx=0;exitDy=0;" edge="1" parent="1" source="kdoTQ5srRfIp-IT-ElM3-27" target="kdoTQ5srRfIp-IT-ElM3-31">
          <mxGeometry relative="1" as="geometry" />
        </mxCell>
        <mxCell id="kdoTQ5srRfIp-IT-ElM3-44" value="" style="startArrow=none;endArrow=block;exitX=0.5;exitY=1;entryX=0.5;entryY=0;rounded=0;edgeStyle=orthogonalEdgeStyle;exitDx=0;exitDy=0;" edge="1" parent="1" source="kdoTQ5srRfIp-IT-ElM3-27" target="kdoTQ5srRfIp-IT-ElM3-32">
          <mxGeometry relative="1" as="geometry" />
        </mxCell>
        <mxCell id="kdoTQ5srRfIp-IT-ElM3-45" value="" style="startArrow=none;endArrow=block;exitX=0.5;exitY=1;entryX=0.5;entryY=0;rounded=0;edgeStyle=orthogonalEdgeStyle;exitDx=0;exitDy=0;" edge="1" parent="1" source="kdoTQ5srRfIp-IT-ElM3-28" target="kdoTQ5srRfIp-IT-ElM3-33">
          <mxGeometry relative="1" as="geometry" />
        </mxCell>
        <mxCell id="kdoTQ5srRfIp-IT-ElM3-46" value="" style="startArrow=none;endArrow=block;exitX=0.5;exitY=1;entryX=0.5;entryY=0;rounded=0;edgeStyle=orthogonalEdgeStyle;exitDx=0;exitDy=0;" edge="1" parent="1" source="kdoTQ5srRfIp-IT-ElM3-28" target="kdoTQ5srRfIp-IT-ElM3-34">
          <mxGeometry relative="1" as="geometry" />
        </mxCell>
        <mxCell id="kdoTQ5srRfIp-IT-ElM3-47" value="" style="startArrow=none;endArrow=block;exitX=0.5;exitY=1;entryX=0.5;entryY=0;rounded=0;edgeStyle=orthogonalEdgeStyle;exitDx=0;exitDy=0;" edge="1" parent="1" source="kdoTQ5srRfIp-IT-ElM3-29" target="kdoTQ5srRfIp-IT-ElM3-35">
          <mxGeometry relative="1" as="geometry" />
        </mxCell>
        <mxCell id="kdoTQ5srRfIp-IT-ElM3-48" value="" style="startArrow=none;endArrow=block;exitX=0.5;exitY=1;entryX=0.5;entryY=0;rounded=0;edgeStyle=orthogonalEdgeStyle;exitDx=0;exitDy=0;" edge="1" parent="1" source="kdoTQ5srRfIp-IT-ElM3-29" target="kdoTQ5srRfIp-IT-ElM3-36">
          <mxGeometry relative="1" as="geometry" />
        </mxCell>
        <mxCell id="kdoTQ5srRfIp-IT-ElM3-49" value="" style="startArrow=none;endArrow=block;exitX=0.5;exitY=1;entryX=0.5;entryY=0;rounded=0;edgeStyle=orthogonalEdgeStyle;exitDx=0;exitDy=0;" edge="1" parent="1" source="kdoTQ5srRfIp-IT-ElM3-30" target="kdoTQ5srRfIp-IT-ElM3-37">
          <mxGeometry relative="1" as="geometry" />
        </mxCell>
        <mxCell id="kdoTQ5srRfIp-IT-ElM3-50" value="" style="startArrow=none;endArrow=block;exitX=0.5;exitY=1;entryX=0.5;entryY=0;rounded=0;edgeStyle=orthogonalEdgeStyle;exitDx=0;exitDy=0;" edge="1" parent="1" source="kdoTQ5srRfIp-IT-ElM3-30" target="kdoTQ5srRfIp-IT-ElM3-38">
          <mxGeometry relative="1" as="geometry" />
        </mxCell>
      </root>
    </mxGraphModel>
  </diagram>
</mxfile>
